PathFileType	4	(X/Y/Z)	/Users/itak/Documents/Research/Walk-IL/dataset/trc/00015_00004.trc
DataRate	CameraRate	NumFrames	NumMarkers	Units	OrigDataRate	OrigDataStartFrame	OrigNumFrames
100.000000	100.000000	4	53	mm	100.000000	514	588
Frame#	Time	RPSI			LPSI			L3			STRN			T10			C7			CLAV			RBAK			LBAK			LSHO			LUPA			LAEL			LAOL			LWTS			LWPS			LFRA			LIFD			LHPS			LHTS			RSHO			RUPA			RAEL			RAOL			RWTS			RWPS			RFRA			RIFD			RHTS			RHPS			RBHD			LFHD			RFHD			LBHD			LHIP			RHIP			RASI			LASI			LKNE			LTHI			LANK			LTIP			LTOE			LMT1			LMT5			LHEE			RKNE			RTHI			RANK			RTIP			RTOE			RMT1			RMT5			RHEE			
		X1	Y1	Z1	X2	Y2	Z2	X3	Y3	Z3	X4	Y4	Z4	X5	Y5	Z5	X6	Y6	Z6	X7	Y7	Z7	X8	Y8	Z8	X9	Y9	Z9	X10	Y10	Z10	X11	Y11	Z11	X12	Y12	Z12	X13	Y13	Z13	X14	Y14	Z14	X15	Y15	Z15	X16	Y16	Z16	X17	Y17	Z17	X18	Y18	Z18	X19	Y19	Z19	X20	Y20	Z20	X21	Y21	Z21	X22	Y22	Z22	X23	Y23	Z23	X24	Y24	Z24	X25	Y25	Z25	X26	Y26	Z26	X27	Y27	Z27	X28	Y28	Z28	X29	Y29	Z29	X30	Y30	Z30	X31	Y31	Z31	X32	Y32	Z32	X33	Y33	Z33	X34	Y34	Z34	X35	Y35	Z35	X36	Y36	Z36	X37	Y37	Z37	X38	Y38	Z38	X39	Y39	Z39	X40	Y40	Z40	X41	Y41	Z41	X42	Y42	Z42	X43	Y43	Z43	X44	Y44	Z44	X45	Y45	Z45	X46	Y46	Z46	X47	Y47	Z47	X48	Y48	Z48	X49	Y49	Z49	X50	Y50	Z50	X51	Y51	Z51	X52	Y52	Z52	X53	Y53	Z53	

515	5.14	-845.294189453125	1068.346069335938	-115.3774795532227	-868.2266235351562	1064.62744140625	-277.6895141601562	-861.1214599609375	1125.376953125	-204.5774688720703	-641.5213012695312	1326.066162109375	-224.1838989257812	-890.0645751953125	1269.49365234375	-205.7200317382812	-852.6478881835938	1537.96142578125	-222.1744384765625	-689.1243286132812	1451.165771484375	-226.2873992919922	-891.639404296875	1399.515869140625	-137.4375915527344	-873.741943359375	1494.067260742188	-318.6746826171875	-776.015869140625	1504.639892578125	-399.1656799316406	-803.5968627929688	1376.85302734375	-473.20849609375	-789.5532836914062	1156.904907226562	-491.644775390625	-844.4068603515625	1144.597778320312	-401.1920471191406	-691.5568237304688	909.3395385742188	-427.6995239257812	-767.1903686523438	890.5052490234375	-469.7566223144531	-771.1887817382812	1041.169921875	-493.5979614257812	-657.5176391601562	725.4105224609375	-405.3034973144531	-731.3001098632812	802.7509155273438	-466.3744506835938	-666.3544311523438	816.1134033203125	-438.5765686035156	-762.4366455078125	1529.131958007812	-52.95072555541992	-767.9555053710938	1457.622802734375	21.6293888092041	-793.5120849609375	1188.588745117188	48.47125244140625	-802.8682861328125	1159.682373046875	-47.27136993408203	-668.3689575195312	927.9208374023438	13.70745849609375	-730.2296752929688	915.8902587890625	82.03077697753906	-778.6689453125	1113.785034179688	63.87979125976562	-653.8294067382812	739.5748901367188	6.074074268341064	-638.0283813476562	817.1161499023438	29.75200843811035	-691.4796142578125	815.4229125976562	81.463623046875	-798.4363403320312	1719.957397460938	-146.0858001708984	-625.508544921875	1741.241577148438	-266.0993347167969	-625.5276489257812	1739.33984375	-167.7154083251953	-805.6250610351562	1727.038208007812	-290.7478942871094	-785.8099365234375	967.37060546875	-397.2527160644531	-720.1461791992188	960.2733764648438	-27.74079704284668	-629.2491455078125	992.9699096679688	-114.1468887329102	-662.5962524414062	1011.802368164062	-347.0772399902344	-730.8320922851562	523.8194580078125	-362.8840942382812	-759.745361328125	659.1126098632812	-394.0753173828125	-840.2227172851562	41.59164047241211	-367.8399963378906	-815.412109375	290.0939331054688	-380.8389282226562	-616.524169921875	39.90552520751953	-315.1538391113281	-674.8560180664062	49.01130676269531	-294.8014221191406	-716.60302734375	39.75413131713867	-392.3863525390625	-906.4895629882812	48.43745422363281	-310.4678955078125	-725.1727294921875	523.7535400390625	-90.98149108886719	-698.640380859375	790.637451171875	-38.64595794677734	-843.6713256835938	43.36112213134766	-120.8571014404297	-751.949951171875	400.81396484375	-92.06441497802734	-614.4822998046875	45.82776641845703	-173.3824768066406	-679.326416015625	49.94448471069336	-200.4312591552734	-692.5745849609375	43.35921478271484	-103.9255981445312	-901.6115112304688	44.95942306518555	-163.8668060302734	
516	5.15	-845.7373046875	1068.227783203125	-116.3879470825195	-868.2879028320312	1064.424194335938	-278.7737121582031	-861.42041015625	1125.031005859375	-205.6144409179688	-642.1646118164062	1326.145385742188	-224.712646484375	-890.474609375	1269.227783203125	-206.8324279785156	-853.6240844726562	1537.733642578125	-222.9655456542969	-689.9571533203125	1451.150024414062	-226.8673858642578	-892.5332641601562	1399.232666015625	-138.3089599609375	-874.5191040039062	1493.804565429688	-319.4711303710938	-776.7279052734375	1504.458984375	-399.8748474121094	-804.2091674804688	1376.62255859375	-473.9138488769531	-790.1798706054688	1156.709106445312	-492.4759216308594	-845.1791381835938	1144.394287109375	-402.0337524414062	-693.0333251953125	908.6843872070312	-428.8042297363281	-768.733154296875	890.22216796875	-470.9706726074219	-772.2164916992188	1040.926025390625	-494.5621643066406	-659.5601806640625	724.6741943359375	-406.9274597167969	-733.14501953125	802.3821411132812	-467.7723083496094	-668.2870483398438	815.325927734375	-439.9622192382812	-763.6133422851562	1528.982543945312	-53.58671569824219	-769.0866088867188	1457.397216796875	20.93756484985352	-793.9549560546875	1188.23828125	47.66452789306641	-803.3134155273438	1159.412109375	-48.09346008300781	-667.66552734375	928.202392578125	12.31271171569824	-729.3480834960938	915.723876953125	80.71366882324219	-778.781982421875	1113.4453125	62.95511627197266	-652.1079711914062	739.972412109375	4.350879192352295	-636.6769409179688	817.5325317382812	28.1287784576416	-690.029052734375	815.4564819335938	79.93336486816406	-799.4916381835938	1719.891357421875	-146.8743743896484	-626.6168823242188	1741.313842773438	-266.872314453125	-626.6288452148438	1739.458374023438	-168.4868927001953	-806.717529296875	1726.83251953125	-291.5030517578125	-785.5455322265625	967.2300415039062	-398.1603698730469	-720.6611938476562	960.385986328125	-28.35967063903809	-629.6270141601562	993.0377197265625	-114.6383590698242	-662.2619018554688	1011.891845703125	-347.6759338378906	-731.5530395507812	523.694580078125	-363.2103271484375	-759.9828491210938	658.9773559570312	-394.6051025390625	-840.2025146484375	41.5086555480957	-367.8810119628906	-815.8705444335938	290.029296875	-381.143310546875	-616.5023193359375	39.87283706665039	-315.1626892089844	-674.8564453125	49.03539657592773	-294.8352661132812	-716.5906982421875	39.6776237487793	-392.4482727050781	-906.4909057617188	48.385498046875	-310.5303344726562	-725.4523315429688	523.8933715820312	-91.36336517333984	-699.02001953125	790.7713623046875	-39.22489547729492	-843.6465454101562	43.37606430053711	-120.8894271850586	-752.2503051757812	400.9158325195312	-92.36801910400391	-614.47998046875	45.85531997680664	-173.3330383300781	-679.316650390625	49.94319152832031	-200.4273223876953	-692.54833984375	43.42269515991211	-103.9384307861328	-901.6407470703125	44.98849487304688	-163.9173889160156	
517	5.16	-846.1278076171875	1068.149291992188	-117.368782043457	-868.3240966796875	1064.266357421875	-279.82958984375	-861.6791381835938	1124.721557617188	-206.6251068115234	-642.7740478515625	1326.239013671875	-225.2424774169922	-890.8849487304688	1268.969970703125	-207.8928985595703	-854.5848999023438	1537.509399414062	-223.7404327392578	-690.7700805664062	1451.151611328125	-227.4433746337891	-893.4004516601562	1398.949951171875	-139.1724090576172	-875.2864379882812	1493.560546875	-320.2503967285156	-777.4329833984375	1504.327270507812	-400.5654602050781	-804.8203125	1376.446533203125	-474.6108703613281	-790.7717895507812	1156.576293945312	-493.2815246582031	-845.8883056640625	1144.25048828125	-402.8397521972656	-694.5031127929688	908.0588989257812	-429.9178466796875	-770.2608032226562	889.9998779296875	-472.1757507324219	-773.2161254882812	1040.745849609375	-495.5074157714844	-661.6580810546875	723.923583984375	-408.6132507324219	-734.9736328125	802.0659790039062	-469.1636657714844	-670.1544189453125	814.6307373046875	-441.3532104492188	-764.7802124023438	1528.85009765625	-54.22331619262695	-770.2060546875	1457.19140625	20.25165748596191	-794.3773193359375	1187.911743164062	46.82424926757812	-803.7039184570312	1159.163940429688	-48.95795822143555	-666.9227294921875	928.5078735351562	10.94796943664551	-728.4638061523438	915.5933837890625	79.39087677001953	-778.8834228515625	1113.130859375	62.00288391113281	-650.3421020507812	740.402099609375	2.674980401992798	-635.3052978515625	817.9725952148438	26.5592041015625	-688.5714721679688	815.54052734375	78.43507385253906	-800.5269775390625	1719.85498046875	-147.6516723632812	-627.6893920898438	1741.371704101562	-267.623046875	-627.7012939453125	1739.563354492188	-169.2401428222656	-807.7847900390625	1726.641845703125	-292.2454223632812	-785.2557373046875	967.1008911132812	-399.0291442871094	-721.1092529296875	960.5093994140625	-28.9881420135498	-629.9568481445312	993.115478515625	-115.1723709106445	-661.929443359375	1011.97119140625	-348.2743835449219	-732.27001953125	523.5706176757812	-363.5121154785156	-760.2096557617188	658.8466186523438	-395.0823364257812	-840.1848754882812	41.44205856323242	-367.9122009277344	-816.3065185546875	289.9656066894531	-381.4159240722656	-616.4781494140625	39.84031677246094	-315.1681213378906	-674.8512573242188	49.05134963989258	-294.8584899902344	-716.5778198242188	39.6107292175293	-392.5016784667969	-906.4883422851562	48.34048461914062	-310.5814819335938	-725.6920166015625	524.0460815429688	-91.76066589355469	-699.385009765625	790.9142456054688	-39.77845001220703	-843.6234741210938	43.39330673217773	-120.9213485717773	-752.5261840820312	401.0049438476562	-92.68495941162109	-614.4782104492188	45.87678909301758	-173.2937316894531	-679.3065185546875	49.93932342529297	-200.4265747070312	-692.5234985351562	43.48216247558594	-103.953987121582	-901.6698608398438	45.0194206237793	-163.9677429199219	
518	5.17	-846.4714965820312	1068.106323242188	-118.322151184082	-868.3466796875	1064.147094726562	-280.8591918945312	-861.9027709960938	1124.456298828125	-207.6125946044922	-643.351318359375	1326.348999023438	-225.7744140625	-891.2913208007812	1268.717895507812	-208.8966674804688	-855.5267333984375	1537.292236328125	-224.4982757568359	-691.5534057617188	1451.17626953125	-228.0214233398438	-894.2322998046875	1398.669799804688	-140.0245513916016	-876.0401000976562	1493.337158203125	-321.0120544433594	-778.1302490234375	1504.250610351562	-401.2377319335938	-805.4239501953125	1376.33349609375	-475.3021545410156	-791.3360595703125	1156.513916015625	-494.0615844726562	-846.5210571289062	1144.174194335938	-403.6054382324219	-695.9597778320312	907.4708862304688	-431.0445251464844	-771.774658203125	889.8456420898438	-473.3645629882812	-774.1822509765625	1040.635375976562	-496.4324340820312	-663.828369140625	723.1397094726562	-410.3628845214844	-736.797119140625	801.8053588867188	-470.5392456054688	-671.9655151367188	814.029541015625	-442.7457275390625	-765.9288940429688	1528.741943359375	-54.86289978027344	-771.307373046875	1457.014404296875	19.57216835021973	-794.7813720703125	1187.618774414062	45.94877243041992	-804.0319213867188	1158.947143554688	-49.8639030456543	-666.1443481445312	928.8452758789062	9.619117736816406	-727.5897216796875	915.5044555664062	78.06231689453125	-778.9747314453125	1112.847412109375	61.02580261230469	-648.5425415039062	740.8700561523438	1.050384640693665	-633.9102783203125	818.44921875	25.05007934570312	-687.1240844726562	815.6749267578125	76.96567535400391	-801.5487670898438	1719.852905273438	-148.4130249023438	-628.7225952148438	1741.410522460938	-268.3489074707031	-628.7448120117188	1739.654052734375	-169.9719085693359	-808.8253173828125	1726.475952148438	-292.9763488769531	-784.9391479492188	966.979736328125	-399.8561706542969	-721.5020751953125	960.6405639648438	-29.62374114990234	-630.2417602539062	993.208740234375	-115.7339248657227	-661.6267700195312	1012.030212402344	-348.8755187988281	-732.9917602539062	523.4418334960938	-363.7937927246094	-760.4361572265625	658.7171020507812	-395.5067749023438	-840.1707153320312	41.39023971557617	-367.9345092773438	-816.7333984375	289.9039001464844	-381.6603393554688	-616.4526977539062	39.80830001831055	-315.1706237792969	-674.84033203125	49.05639266967773	-294.8741760253906	-716.5654907226562	39.55334091186523	-392.5464477539062	-906.4859619140625	48.30209732055664	-310.6220397949219	-725.8798828125	524.2090454101562	-92.16741943359375	-699.7357788085938	791.070556640625	-40.29488754272461	-843.6069946289062	43.4171028137207	-120.9560928344727	-752.7574462890625	401.0850524902344	-93.01954650878906	-614.4767456054688	45.89167785644531	-173.2658386230469	-679.2949829101562	49.93213653564453	-200.4282531738281	-692.501220703125	43.53676986694336	-103.9724502563477	-901.6995239257812	45.05440521240234	-164.0184783935547	
